<svg width="130" height="130" viewBox="0 0 130 130" fill="none" xmlns="http://www.w3.org/2000/svg">
<g clip-path="url(#clip0_3_33)">
<circle cx="65" cy="65" r="65" fill="#EFEFEF"/>
<path fill-rule="evenodd" clip-rule="evenodd" d="M81 47H49C47.8954 47 47 47.8954 47 49V70.2667L59.6547 67.3139C60.5486 67.1053 61.4635 67 62.3814 67H67.6186C68.5365 67 69.4514 67.1053 70.3453 67.3139L83 70.2667V49C83 47.8954 82.1046 47 81 47ZM49 45C46.7909 45 45 46.7909 45 49V81C45 83.2091 46.7909 85 49 85H81C83.2091 85 85 83.2091 85 81V49C85 46.7909 83.2091 45 81 45H49ZM55.9091 59.5455C57.9174 59.5455 59.5455 57.9174 59.5455 55.9091C59.5455 53.9008 57.9174 52.2727 55.9091 52.2727C53.9008 52.2727 52.2728 53.9008 52.2728 55.9091C52.2728 57.9174 53.9008 59.5455 55.9091 59.5455Z" fill="#CDCDCD"/>
<circle opacity="0.45" cx="65" cy="65" r="65" fill="black"/>
<path d="M35.3639 63V53.718H42.0719V63H40.6549V54.927H36.8069V63H35.3639ZM50.1109 59.49C50.1109 60.0707 50.0372 60.5863 49.8899 61.037C49.7426 61.4877 49.5302 61.869 49.2529 62.181C48.9842 62.493 48.6549 62.7313 48.2649 62.896C47.8749 63.052 47.4372 63.13 46.9519 63.13C46.5099 63.13 46.0982 63.052 45.7169 62.896C45.3356 62.7313 45.0062 62.493 44.7289 62.181C44.4516 61.869 44.2349 61.4877 44.0789 61.037C43.9316 60.5863 43.8579 60.0663 43.8579 59.477C43.8579 58.7057 43.9836 58.0513 44.2349 57.514C44.4862 56.9767 44.8459 56.5693 45.3139 56.292C45.7906 56.006 46.3539 55.863 47.0039 55.863C47.6106 55.863 48.1479 56.006 48.6159 56.292C49.0839 56.5693 49.4479 56.9767 49.7079 57.514C49.9766 58.0513 50.1109 58.71 50.1109 59.49ZM45.3139 59.49C45.3139 60.01 45.3702 60.4607 45.4829 60.842C45.6042 61.2147 45.7862 61.5007 46.0289 61.7C46.2802 61.8993 46.5966 61.999 46.9779 61.999C47.3679 61.999 47.6842 61.8993 47.9269 61.7C48.1782 61.5007 48.3602 61.2147 48.4729 60.842C48.5942 60.4607 48.6549 60.01 48.6549 59.49C48.6549 58.9527 48.5942 58.502 48.4729 58.138C48.3516 57.774 48.1696 57.4967 47.9269 57.306C47.6842 57.1067 47.3636 57.007 46.9649 57.007C46.3842 57.007 45.9639 57.2237 45.7039 57.657C45.4439 58.0903 45.3139 58.7013 45.3139 59.49ZM59.2911 55.993V63H58.0041V58.84C58.0041 58.606 58.0085 58.372 58.0171 58.138C58.0345 57.8953 58.0561 57.6657 58.0821 57.449H58.0431L56.0411 63H54.9361L52.9731 57.449H52.9341C52.9515 57.6657 52.9645 57.8953 52.9731 58.138C52.9818 58.372 52.9861 58.619 52.9861 58.879V63H51.7121V55.993H53.6231L55.4951 61.362L57.3931 55.993H59.2911ZM63.9237 55.863C64.5044 55.863 65.007 55.993 65.4317 56.253C65.8564 56.5043 66.1814 56.8683 66.4067 57.345C66.6407 57.8217 66.7577 58.385 66.7577 59.035V59.789H62.3507C62.368 60.5083 62.5414 61.0587 62.8707 61.44C63.2 61.8213 63.6637 62.012 64.2617 62.012C64.6864 62.012 65.0634 61.973 65.3927 61.895C65.7307 61.8083 66.073 61.6827 66.4197 61.518V62.662C66.0904 62.818 65.7524 62.935 65.4057 63.013C65.0677 63.091 64.656 63.13 64.1707 63.13C63.538 63.13 62.9747 62.9957 62.4807 62.727C61.9867 62.4583 61.601 62.0597 61.3237 61.531C61.0464 60.9937 60.9077 60.335 60.9077 59.555C60.9077 58.7663 61.0334 58.099 61.2847 57.553C61.536 57.007 61.887 56.591 62.3377 56.305C62.797 56.0103 63.3257 55.863 63.9237 55.863ZM63.9237 56.929C63.4817 56.929 63.1264 57.0893 62.8577 57.41C62.589 57.7307 62.433 58.1857 62.3897 58.775H65.3667C65.3667 58.411 65.3147 58.0903 65.2107 57.813C65.1067 57.5357 64.9464 57.319 64.7297 57.163C64.5217 57.007 64.253 56.929 63.9237 56.929ZM69.7343 55.993V58.84H72.8413V55.993H74.2453V63H72.8413V59.945H69.7343V63H68.3303V55.993H69.7343ZM76.9158 63H75.3428L77.1758 60.114C76.9331 60.0273 76.7034 59.906 76.4868 59.75C76.2701 59.594 76.0924 59.3773 75.9538 59.1C75.8238 58.8227 75.7588 58.4847 75.7588 58.086C75.7588 57.41 75.9841 56.8943 76.4348 56.539C76.8854 56.175 77.4878 55.993 78.2418 55.993H81.2578V63H79.8538V60.27H78.5148L76.9158 63ZM77.1368 58.099C77.1368 58.4717 77.2581 58.7533 77.5008 58.944C77.7434 59.126 78.0901 59.217 78.5408 59.217H79.8538V57.059H78.3588C77.9254 57.059 77.6134 57.1587 77.4228 57.358C77.2321 57.5573 77.1368 57.8043 77.1368 58.099ZM88.2136 57.098H86.0426V63H84.6516V57.098H82.5066V55.993H88.2136V57.098ZM92.5357 58.814C93.1423 58.814 93.6407 58.892 94.0307 59.048C94.4293 59.1953 94.724 59.4163 94.9147 59.711C95.114 60.0057 95.2137 60.3783 95.2137 60.829C95.2137 61.271 95.1183 61.6567 94.9277 61.986C94.737 62.3067 94.4423 62.558 94.0437 62.74C93.645 62.9133 93.1207 63 92.4707 63H89.4807V55.993H90.8847V58.814H92.5357ZM93.7967 60.881C93.7967 60.4997 93.6753 60.2397 93.4327 60.101C93.1987 59.9537 92.8477 59.88 92.3797 59.88H90.8847V61.96H92.4057C92.813 61.96 93.1467 61.8777 93.4067 61.713C93.6667 61.5483 93.7967 61.271 93.7967 60.881ZM47.4579 69.863C48.2812 69.863 48.9009 70.058 49.3169 70.448C49.7415 70.8293 49.9539 71.4317 49.9539 72.255V77H48.9529L48.6799 76.025H48.6279C48.4285 76.2763 48.2292 76.4843 48.0299 76.649C47.8392 76.8137 47.6139 76.935 47.3539 77.013C47.1025 77.091 46.7905 77.13 46.4179 77.13C46.0279 77.13 45.6769 77.0563 45.3649 76.909C45.0529 76.753 44.8059 76.519 44.6239 76.207C44.4419 75.8863 44.3509 75.4877 44.3509 75.011C44.3509 74.3003 44.6022 73.7587 45.1049 73.386C45.6162 73.0133 46.3919 72.8097 47.4319 72.775L48.5499 72.736V72.346C48.5499 71.826 48.4415 71.462 48.2249 71.254C48.0169 71.046 47.7222 70.942 47.3409 70.942C47.0202 70.942 46.7039 70.994 46.3919 71.098C46.0799 71.202 45.7765 71.3277 45.4819 71.475L45.0529 70.474C45.3735 70.3007 45.7375 70.1577 46.1449 70.045C46.5609 69.9237 46.9985 69.863 47.4579 69.863ZM47.7049 73.659C46.9942 73.6937 46.5002 73.828 46.2229 74.062C45.9455 74.2873 45.8069 74.608 45.8069 75.024C45.8069 75.388 45.9022 75.6523 46.0929 75.817C46.2922 75.9817 46.5479 76.064 46.8599 76.064C47.3365 76.064 47.7352 75.9123 48.0559 75.609C48.3852 75.3057 48.5499 74.8507 48.5499 74.244V73.633L47.7049 73.659ZM57.4279 71.774C57.4279 72.1987 57.3109 72.5367 57.0769 72.788C56.8429 73.0307 56.5222 73.1953 56.1149 73.282V73.334C56.5482 73.3947 56.9079 73.555 57.1939 73.815C57.4885 74.0663 57.6359 74.439 57.6359 74.933C57.6359 75.2363 57.5839 75.5137 57.4799 75.765C57.3845 76.0163 57.2242 76.2373 56.9989 76.428C56.7822 76.61 56.4962 76.753 56.1409 76.857C55.7855 76.9523 55.3565 77 54.8539 77H51.8899V69.993H54.8539C55.3565 69.993 55.8029 70.0493 56.1929 70.162C56.5829 70.2747 56.8862 70.461 57.1029 70.721C57.3195 70.981 57.4279 71.332 57.4279 71.774ZM56.1929 74.907C56.1929 74.543 56.0672 74.283 55.8159 74.127C55.5732 73.9623 55.2092 73.88 54.7239 73.88H53.2939V75.96H54.7369C55.2049 75.96 55.5645 75.882 55.8159 75.726C56.0672 75.5613 56.1929 75.2883 56.1929 74.907ZM56.0109 71.93C56.0109 71.6267 55.9112 71.4057 55.7119 71.267C55.5212 71.1283 55.2135 71.059 54.7889 71.059H53.2939V72.827H54.5939C55.0619 72.827 55.4129 72.7577 55.6469 72.619C55.8895 72.4717 56.0109 72.242 56.0109 71.93ZM61.8036 69.863C62.6269 69.863 63.2466 70.058 63.6626 70.448C64.0872 70.8293 64.2996 71.4317 64.2996 72.255V77H63.2986L63.0256 76.025H62.9736C62.7742 76.2763 62.5749 76.4843 62.3756 76.649C62.1849 76.8137 61.9596 76.935 61.6996 77.013C61.4482 77.091 61.1362 77.13 60.7636 77.13C60.3736 77.13 60.0226 77.0563 59.7106 76.909C59.3986 76.753 59.1516 76.519 58.9696 76.207C58.7876 75.8863 58.6966 75.4877 58.6966 75.011C58.6966 74.3003 58.9479 73.7587 59.4506 73.386C59.9619 73.0133 60.7376 72.8097 61.7776 72.775L62.8956 72.736V72.346C62.8956 71.826 62.7872 71.462 62.5706 71.254C62.3626 71.046 62.0679 70.942 61.6866 70.942C61.3659 70.942 61.0496 70.994 60.7376 71.098C60.4256 71.202 60.1222 71.3277 59.8276 71.475L59.3986 70.474C59.7192 70.3007 60.0832 70.1577 60.4906 70.045C60.9066 69.9237 61.3442 69.863 61.8036 69.863ZM62.0506 73.659C61.3399 73.6937 60.8459 73.828 60.5686 74.062C60.2912 74.2873 60.1526 74.608 60.1526 75.024C60.1526 75.388 60.2479 75.6523 60.4386 75.817C60.6379 75.9817 60.8936 76.064 61.2056 76.064C61.6822 76.064 62.0809 75.9123 62.4016 75.609C62.7309 75.3057 62.8956 74.8507 62.8956 74.244V73.633L62.0506 73.659ZM71.2146 71.098H69.0436V77H67.6526V71.098H65.5076V69.993H71.2146V71.098ZM75.1337 69.863C75.957 69.863 76.5767 70.058 76.9927 70.448C77.4173 70.8293 77.6297 71.4317 77.6297 72.255V77H76.6287L76.3557 76.025H76.3037C76.1043 76.2763 75.905 76.4843 75.7057 76.649C75.515 76.8137 75.2897 76.935 75.0297 77.013C74.7783 77.091 74.4663 77.13 74.0937 77.13C73.7037 77.13 73.3527 77.0563 73.0407 76.909C72.7287 76.753 72.4817 76.519 72.2997 76.207C72.1177 75.8863 72.0267 75.4877 72.0267 75.011C72.0267 74.3003 72.278 73.7587 72.7807 73.386C73.292 73.0133 74.0677 72.8097 75.1077 72.775L76.2257 72.736V72.346C76.2257 71.826 76.1173 71.462 75.9007 71.254C75.6927 71.046 75.398 70.942 75.0167 70.942C74.696 70.942 74.3797 70.994 74.0677 71.098C73.7557 71.202 73.4523 71.3277 73.1577 71.475L72.7287 70.474C73.0493 70.3007 73.4133 70.1577 73.8207 70.045C74.2367 69.9237 74.6743 69.863 75.1337 69.863ZM75.3807 73.659C74.67 73.6937 74.176 73.828 73.8987 74.062C73.6213 74.2873 73.4827 74.608 73.4827 75.024C73.4827 75.388 73.578 75.6523 73.7687 75.817C73.968 75.9817 74.2237 76.064 74.5357 76.064C75.0123 76.064 75.411 75.9123 75.7317 75.609C76.061 75.3057 76.2257 74.8507 76.2257 74.244V73.633L75.3807 73.659ZM82.9456 69.863C83.7343 69.863 84.367 70.1663 84.8436 70.773C85.3203 71.3797 85.5586 72.2853 85.5586 73.49C85.5586 74.2787 85.446 74.946 85.2206 75.492C85.004 76.038 84.6963 76.4497 84.2976 76.727C83.899 76.9957 83.4353 77.13 82.9066 77.13C82.586 77.13 82.3 77.0867 82.0486 77C81.7973 76.9047 81.585 76.7833 81.4116 76.636C81.247 76.48 81.0996 76.3153 80.9696 76.142H80.8916C80.909 76.298 80.9263 76.4843 80.9436 76.701C80.961 76.909 80.9696 77.0953 80.9696 77.26V80.12H79.5656V69.993H80.7096L80.9046 70.929H80.9696C81.0996 70.7383 81.2513 70.5607 81.4246 70.396C81.6066 70.2313 81.819 70.1013 82.0616 70.006C82.313 69.9107 82.6076 69.863 82.9456 69.863ZM82.5686 70.994C82.1873 70.994 81.8796 71.0807 81.6456 71.254C81.4116 71.4187 81.2383 71.67 81.1256 72.008C81.0216 72.3373 80.9696 72.7577 80.9696 73.269V73.477C80.9696 74.0143 81.0173 74.4737 81.1126 74.855C81.2166 75.2277 81.3856 75.5137 81.6196 75.713C81.8623 75.9037 82.1873 75.999 82.5946 75.999C82.9413 75.999 83.2273 75.895 83.4526 75.687C83.678 75.4703 83.8426 75.1713 83.9466 74.79C84.0593 74.4087 84.1156 73.9667 84.1156 73.464C84.1156 72.7013 83.9856 72.099 83.7256 71.657C83.4743 71.215 83.0886 70.994 82.5686 70.994Z" fill="white"/>
</g>
<defs>
<clipPath id="clip0_3_33">
<rect width="130" height="130" fill="white"/>
</clipPath>
</defs>
</svg>
