<svg width="14" height="14" viewBox="0 0 14 14" fill="none" xmlns="http://www.w3.org/2000/svg">
<g clip-path="url(#clip0_5_45)">
<path fill-rule="evenodd" clip-rule="evenodd" d="M8.5924 8.41384C7.16048 9.84576 4.83887 9.84576 3.40695 8.41384C1.97503 6.98192 1.97503 4.66031 3.40695 3.22839C4.83887 1.79647 7.16048 1.79647 8.5924 3.22839C10.0243 4.66031 10.0243 6.98192 8.5924 8.41384ZM9.03278 9.7968C7.07256 11.2962 4.25697 11.1495 2.46414 9.35665C0.51152 7.40403 0.51152 4.2382 2.46414 2.28558C4.41676 0.332958 7.58259 0.332958 9.53521 2.28558C11.328 4.07833 11.4747 6.89375 9.97556 8.85396L13.5423 12.4207L12.5995 13.3635L9.03278 9.7968Z" fill="#999999"/>
</g>
<defs>
<clipPath id="clip0_5_45">
<rect width="14" height="14" fill="white"/>
</clipPath>
</defs>
</svg>
